G04 #@! TF.GenerationSoftware,KiCad,Pcbnew,(5.1.4)-1*
G04 #@! TF.CreationDate,2020-01-31T15:03:28+00:00*
G04 #@! TF.ProjectId,KeepCalm,4b656570-4361-46c6-9d2e-6b696361645f,rev?*
G04 #@! TF.SameCoordinates,Original*
G04 #@! TF.FileFunction,Legend,Bot*
G04 #@! TF.FilePolarity,Positive*
%FSLAX46Y46*%
G04 Gerber Fmt 4.6, Leading zero omitted, Abs format (unit mm)*
G04 Created by KiCad (PCBNEW (5.1.4)-1) date 2020-01-31 15:03:28*
%MOMM*%
%LPD*%
G04 APERTURE LIST*
%ADD10C,0.120000*%
%ADD11C,0.150000*%
G04 APERTURE END LIST*
D10*
G04 #@! TO.C,BT1*
X163750000Y-85050000D02*
X166950000Y-85050000D01*
X166950000Y-85050000D02*
X166950000Y-86600000D01*
X163750000Y-80550000D02*
X163750000Y-85050000D01*
X163750000Y-80550000D02*
X142850000Y-80550000D01*
X141050000Y-82350000D02*
X141050000Y-85050000D01*
X142850000Y-80550000D02*
X141050000Y-82350000D01*
X141050000Y-85050000D02*
X137850000Y-85050000D01*
X137850000Y-85050000D02*
X137850000Y-86600000D01*
X141050000Y-92750000D02*
X137850000Y-92750000D01*
X137850000Y-92750000D02*
X137850000Y-91200000D01*
X163750000Y-92750000D02*
X166950000Y-92750000D01*
X166950000Y-92750000D02*
X166950000Y-91200000D01*
X141050000Y-97250000D02*
X163750000Y-97250000D01*
X141050000Y-97250000D02*
X141050000Y-92750000D01*
X163750000Y-97250000D02*
X163750000Y-92750000D01*
X139400000Y-83900000D02*
X139400000Y-81900000D01*
X140400000Y-82900000D02*
X138400000Y-82900000D01*
G04 #@! TO.C,R1*
X161297252Y-77014000D02*
X160774748Y-77014000D01*
X161297252Y-78434000D02*
X160774748Y-78434000D01*
G04 #@! TO.C,R2*
X151645252Y-103834000D02*
X151122748Y-103834000D01*
X151645252Y-102414000D02*
X151122748Y-102414000D01*
G04 #@! TO.C,R3*
X155694748Y-103834000D02*
X156217252Y-103834000D01*
X155694748Y-102414000D02*
X156217252Y-102414000D01*
G04 #@! TO.C,R4*
X139902000Y-95242748D02*
X139902000Y-95765252D01*
X138482000Y-95242748D02*
X138482000Y-95765252D01*
G04 #@! TO.C,R5*
X151630748Y-75386000D02*
X152153252Y-75386000D01*
X151630748Y-73966000D02*
X152153252Y-73966000D01*
G04 #@! TO.C,BT1*
D11*
X153185714Y-88828571D02*
X153042857Y-88876190D01*
X152995238Y-88923809D01*
X152947619Y-89019047D01*
X152947619Y-89161904D01*
X152995238Y-89257142D01*
X153042857Y-89304761D01*
X153138095Y-89352380D01*
X153519047Y-89352380D01*
X153519047Y-88352380D01*
X153185714Y-88352380D01*
X153090476Y-88400000D01*
X153042857Y-88447619D01*
X152995238Y-88542857D01*
X152995238Y-88638095D01*
X153042857Y-88733333D01*
X153090476Y-88780952D01*
X153185714Y-88828571D01*
X153519047Y-88828571D01*
X152661904Y-88352380D02*
X152090476Y-88352380D01*
X152376190Y-89352380D02*
X152376190Y-88352380D01*
X151233333Y-89352380D02*
X151804761Y-89352380D01*
X151519047Y-89352380D02*
X151519047Y-88352380D01*
X151614285Y-88495238D01*
X151709523Y-88590476D01*
X151804761Y-88638095D01*
G04 #@! TO.C,R1*
X161202666Y-79954380D02*
X161536000Y-79478190D01*
X161774095Y-79954380D02*
X161774095Y-78954380D01*
X161393142Y-78954380D01*
X161297904Y-79002000D01*
X161250285Y-79049619D01*
X161202666Y-79144857D01*
X161202666Y-79287714D01*
X161250285Y-79382952D01*
X161297904Y-79430571D01*
X161393142Y-79478190D01*
X161774095Y-79478190D01*
X160250285Y-79954380D02*
X160821714Y-79954380D01*
X160536000Y-79954380D02*
X160536000Y-78954380D01*
X160631238Y-79097238D01*
X160726476Y-79192476D01*
X160821714Y-79240095D01*
G04 #@! TO.C,R2*
X151550666Y-102052380D02*
X151884000Y-101576190D01*
X152122095Y-102052380D02*
X152122095Y-101052380D01*
X151741142Y-101052380D01*
X151645904Y-101100000D01*
X151598285Y-101147619D01*
X151550666Y-101242857D01*
X151550666Y-101385714D01*
X151598285Y-101480952D01*
X151645904Y-101528571D01*
X151741142Y-101576190D01*
X152122095Y-101576190D01*
X151169714Y-101147619D02*
X151122095Y-101100000D01*
X151026857Y-101052380D01*
X150788761Y-101052380D01*
X150693523Y-101100000D01*
X150645904Y-101147619D01*
X150598285Y-101242857D01*
X150598285Y-101338095D01*
X150645904Y-101480952D01*
X151217333Y-102052380D01*
X150598285Y-102052380D01*
G04 #@! TO.C,R3*
X156122666Y-102052380D02*
X156456000Y-101576190D01*
X156694095Y-102052380D02*
X156694095Y-101052380D01*
X156313142Y-101052380D01*
X156217904Y-101100000D01*
X156170285Y-101147619D01*
X156122666Y-101242857D01*
X156122666Y-101385714D01*
X156170285Y-101480952D01*
X156217904Y-101528571D01*
X156313142Y-101576190D01*
X156694095Y-101576190D01*
X155789333Y-101052380D02*
X155170285Y-101052380D01*
X155503619Y-101433333D01*
X155360761Y-101433333D01*
X155265523Y-101480952D01*
X155217904Y-101528571D01*
X155170285Y-101623809D01*
X155170285Y-101861904D01*
X155217904Y-101957142D01*
X155265523Y-102004761D01*
X155360761Y-102052380D01*
X155646476Y-102052380D01*
X155741714Y-102004761D01*
X155789333Y-101957142D01*
G04 #@! TO.C,R4*
X140628666Y-98750380D02*
X140962000Y-98274190D01*
X141200095Y-98750380D02*
X141200095Y-97750380D01*
X140819142Y-97750380D01*
X140723904Y-97798000D01*
X140676285Y-97845619D01*
X140628666Y-97940857D01*
X140628666Y-98083714D01*
X140676285Y-98178952D01*
X140723904Y-98226571D01*
X140819142Y-98274190D01*
X141200095Y-98274190D01*
X139771523Y-98083714D02*
X139771523Y-98750380D01*
X140009619Y-97702761D02*
X140247714Y-98417047D01*
X139628666Y-98417047D01*
G04 #@! TO.C,R5*
X155106666Y-75128380D02*
X155440000Y-74652190D01*
X155678095Y-75128380D02*
X155678095Y-74128380D01*
X155297142Y-74128380D01*
X155201904Y-74176000D01*
X155154285Y-74223619D01*
X155106666Y-74318857D01*
X155106666Y-74461714D01*
X155154285Y-74556952D01*
X155201904Y-74604571D01*
X155297142Y-74652190D01*
X155678095Y-74652190D01*
X154201904Y-74128380D02*
X154678095Y-74128380D01*
X154725714Y-74604571D01*
X154678095Y-74556952D01*
X154582857Y-74509333D01*
X154344761Y-74509333D01*
X154249523Y-74556952D01*
X154201904Y-74604571D01*
X154154285Y-74699809D01*
X154154285Y-74937904D01*
X154201904Y-75033142D01*
X154249523Y-75080761D01*
X154344761Y-75128380D01*
X154582857Y-75128380D01*
X154678095Y-75080761D01*
X154725714Y-75033142D01*
G04 #@! TD*
M02*
