G04 #@! TF.GenerationSoftware,KiCad,Pcbnew,(5.1.4)-1*
G04 #@! TF.CreationDate,2020-01-31T15:03:28+00:00*
G04 #@! TF.ProjectId,KeepCalm,4b656570-4361-46c6-9d2e-6b696361645f,rev?*
G04 #@! TF.SameCoordinates,Original*
G04 #@! TF.FileFunction,Soldermask,Top*
G04 #@! TF.FilePolarity,Negative*
%FSLAX46Y46*%
G04 Gerber Fmt 4.6, Leading zero omitted, Abs format (unit mm)*
G04 Created by KiCad (PCBNEW (5.1.4)-1) date 2020-01-31 15:03:28*
%MOMM*%
%LPD*%
G04 APERTURE LIST*
%ADD10C,0.100000*%
G04 APERTURE END LIST*
D10*
G36*
X150151542Y-101816016D02*
G01*
X150215505Y-101824437D01*
X150215507Y-101824437D01*
X151164968Y-101949436D01*
X151164972Y-101949437D01*
X151228929Y-101957857D01*
X151273296Y-101968202D01*
X151309171Y-101984456D01*
X151341187Y-102007399D01*
X151368108Y-102036143D01*
X151388909Y-102069593D01*
X151402783Y-102106454D01*
X151409198Y-102145314D01*
X151407708Y-102190842D01*
X151399287Y-102254805D01*
X151399287Y-102254807D01*
X151308347Y-102945569D01*
X151298499Y-103020367D01*
X151288154Y-103064734D01*
X151271900Y-103100609D01*
X151248957Y-103132625D01*
X151220213Y-103159546D01*
X151186763Y-103180347D01*
X151149902Y-103194221D01*
X151111043Y-103200636D01*
X151065514Y-103199146D01*
X151001551Y-103190725D01*
X151001549Y-103190725D01*
X150052088Y-103065726D01*
X150052084Y-103065725D01*
X149988127Y-103057305D01*
X149943760Y-103046960D01*
X149907885Y-103030706D01*
X149875869Y-103007763D01*
X149848948Y-102979019D01*
X149828147Y-102945569D01*
X149814273Y-102908708D01*
X149807858Y-102869848D01*
X149809348Y-102824320D01*
X149869382Y-102368313D01*
X149910136Y-102058756D01*
X149910137Y-102058752D01*
X149918557Y-101994795D01*
X149928902Y-101950428D01*
X149945156Y-101914553D01*
X149968099Y-101882537D01*
X149996843Y-101855616D01*
X150030293Y-101834815D01*
X150067154Y-101820941D01*
X150106013Y-101814526D01*
X150151542Y-101816016D01*
X150151542Y-101816016D01*
G37*
G36*
X154732846Y-101820941D02*
G01*
X154769707Y-101834815D01*
X154803157Y-101855616D01*
X154831901Y-101882537D01*
X154854844Y-101914553D01*
X154871098Y-101950428D01*
X154881443Y-101994795D01*
X154889863Y-102058752D01*
X154889864Y-102058756D01*
X154930618Y-102368313D01*
X154990652Y-102824320D01*
X154992142Y-102869849D01*
X154985727Y-102908708D01*
X154971853Y-102945569D01*
X154951052Y-102979019D01*
X154924131Y-103007763D01*
X154892115Y-103030706D01*
X154856240Y-103046960D01*
X154811873Y-103057305D01*
X154747916Y-103065725D01*
X154747912Y-103065726D01*
X153798451Y-103190725D01*
X153798449Y-103190725D01*
X153734486Y-103199146D01*
X153688958Y-103200636D01*
X153650098Y-103194221D01*
X153613237Y-103180347D01*
X153579787Y-103159546D01*
X153551043Y-103132625D01*
X153528100Y-103100609D01*
X153511846Y-103064734D01*
X153501501Y-103020367D01*
X153491654Y-102945569D01*
X153400713Y-102254807D01*
X153400713Y-102254805D01*
X153392292Y-102190842D01*
X153390802Y-102145313D01*
X153397217Y-102106454D01*
X153411091Y-102069593D01*
X153431892Y-102036143D01*
X153458813Y-102007399D01*
X153490829Y-101984456D01*
X153526704Y-101968202D01*
X153571071Y-101957857D01*
X153635028Y-101949437D01*
X153635032Y-101949436D01*
X154584493Y-101824437D01*
X154584495Y-101824437D01*
X154648458Y-101816016D01*
X154693986Y-101814526D01*
X154732846Y-101820941D01*
X154732846Y-101820941D01*
G37*
G36*
X158036737Y-100780747D02*
G01*
X158074431Y-100792182D01*
X158109166Y-100810748D01*
X158139610Y-100835732D01*
X158164597Y-100866179D01*
X158186074Y-100906360D01*
X158210758Y-100965952D01*
X158210761Y-100965958D01*
X158358017Y-101321467D01*
X158506254Y-101679342D01*
X158519480Y-101722943D01*
X158523340Y-101762138D01*
X158519480Y-101801333D01*
X158508046Y-101839026D01*
X158489479Y-101873762D01*
X158464493Y-101904208D01*
X158434048Y-101929193D01*
X158393867Y-101950670D01*
X157389915Y-102366521D01*
X157346315Y-102379747D01*
X157307120Y-102383607D01*
X157267925Y-102379747D01*
X157230231Y-102368312D01*
X157195496Y-102349746D01*
X157165052Y-102324762D01*
X157140065Y-102294315D01*
X157118588Y-102254134D01*
X157093904Y-102194542D01*
X157093901Y-102194536D01*
X156823094Y-101540749D01*
X156798408Y-101481152D01*
X156785182Y-101437551D01*
X156781322Y-101398356D01*
X156785182Y-101359161D01*
X156796616Y-101321468D01*
X156815183Y-101286732D01*
X156840169Y-101256286D01*
X156870614Y-101231301D01*
X156910795Y-101209824D01*
X157914747Y-100793973D01*
X157958347Y-100780747D01*
X157997542Y-100776887D01*
X158036737Y-100780747D01*
X158036737Y-100780747D01*
G37*
G36*
X146841653Y-100780747D02*
G01*
X146885253Y-100793973D01*
X147889205Y-101209824D01*
X147929386Y-101231301D01*
X147959833Y-101256288D01*
X147984817Y-101286732D01*
X148003383Y-101321467D01*
X148014818Y-101359161D01*
X148018678Y-101398356D01*
X148014818Y-101437551D01*
X148001592Y-101481152D01*
X147976906Y-101540749D01*
X147706099Y-102194536D01*
X147706096Y-102194542D01*
X147681412Y-102254134D01*
X147659935Y-102294315D01*
X147634950Y-102324760D01*
X147604504Y-102349746D01*
X147569768Y-102368313D01*
X147532075Y-102379747D01*
X147492880Y-102383607D01*
X147453685Y-102379747D01*
X147410085Y-102366521D01*
X146406133Y-101950670D01*
X146365952Y-101929193D01*
X146335505Y-101904206D01*
X146310521Y-101873762D01*
X146291955Y-101839027D01*
X146280520Y-101801333D01*
X146276660Y-101762138D01*
X146280520Y-101722943D01*
X146293746Y-101679342D01*
X146441983Y-101321467D01*
X146589239Y-100965958D01*
X146589242Y-100965952D01*
X146613926Y-100906360D01*
X146635403Y-100866179D01*
X146660388Y-100835734D01*
X146690834Y-100810748D01*
X146725570Y-100792181D01*
X146763263Y-100780747D01*
X146802458Y-100776887D01*
X146841653Y-100780747D01*
X146841653Y-100780747D01*
G37*
G36*
X150419120Y-99783554D02*
G01*
X150483083Y-99791975D01*
X150483085Y-99791975D01*
X151432546Y-99916974D01*
X151432550Y-99916975D01*
X151496507Y-99925395D01*
X151540874Y-99935740D01*
X151576749Y-99951994D01*
X151608765Y-99974937D01*
X151635686Y-100003681D01*
X151656487Y-100037131D01*
X151670361Y-100073992D01*
X151676776Y-100112852D01*
X151675286Y-100158380D01*
X151666865Y-100222343D01*
X151666865Y-100222345D01*
X151575162Y-100918903D01*
X151566077Y-100987905D01*
X151555732Y-101032272D01*
X151539478Y-101068147D01*
X151516535Y-101100163D01*
X151487791Y-101127084D01*
X151454341Y-101147885D01*
X151417480Y-101161759D01*
X151378621Y-101168174D01*
X151333092Y-101166684D01*
X151269129Y-101158263D01*
X151269127Y-101158263D01*
X150319666Y-101033264D01*
X150319662Y-101033263D01*
X150255705Y-101024843D01*
X150211338Y-101014498D01*
X150175463Y-100998244D01*
X150143447Y-100975301D01*
X150116526Y-100946557D01*
X150095725Y-100913107D01*
X150081851Y-100876246D01*
X150075436Y-100837386D01*
X150076926Y-100791858D01*
X150085347Y-100727893D01*
X150177714Y-100026294D01*
X150177715Y-100026290D01*
X150186135Y-99962333D01*
X150196480Y-99917966D01*
X150212734Y-99882091D01*
X150235677Y-99850075D01*
X150264421Y-99823154D01*
X150297871Y-99802353D01*
X150334732Y-99788479D01*
X150373591Y-99782064D01*
X150419120Y-99783554D01*
X150419120Y-99783554D01*
G37*
G36*
X154465268Y-99788479D02*
G01*
X154502129Y-99802353D01*
X154535579Y-99823154D01*
X154564323Y-99850075D01*
X154587266Y-99882091D01*
X154603520Y-99917966D01*
X154613865Y-99962333D01*
X154622285Y-100026290D01*
X154622286Y-100026294D01*
X154714653Y-100727893D01*
X154723074Y-100791858D01*
X154724564Y-100837387D01*
X154718149Y-100876246D01*
X154704275Y-100913107D01*
X154683474Y-100946557D01*
X154656553Y-100975301D01*
X154624537Y-100998244D01*
X154588662Y-101014498D01*
X154544295Y-101024843D01*
X154480338Y-101033263D01*
X154480334Y-101033264D01*
X153530873Y-101158263D01*
X153530871Y-101158263D01*
X153466908Y-101166684D01*
X153421380Y-101168174D01*
X153382520Y-101161759D01*
X153345659Y-101147885D01*
X153312209Y-101127084D01*
X153283465Y-101100163D01*
X153260522Y-101068147D01*
X153244268Y-101032272D01*
X153233923Y-100987905D01*
X153224839Y-100918903D01*
X153133135Y-100222345D01*
X153133135Y-100222343D01*
X153124714Y-100158380D01*
X153123224Y-100112851D01*
X153129639Y-100073992D01*
X153143513Y-100037131D01*
X153164314Y-100003681D01*
X153191235Y-99974937D01*
X153223251Y-99951994D01*
X153259126Y-99935740D01*
X153303493Y-99925395D01*
X153367450Y-99916975D01*
X153367454Y-99916974D01*
X154316915Y-99791975D01*
X154316917Y-99791975D01*
X154380880Y-99783554D01*
X154426408Y-99782064D01*
X154465268Y-99788479D01*
X154465268Y-99788479D01*
G37*
G36*
X143919222Y-98923440D02*
G01*
X143956090Y-98937316D01*
X143994776Y-98961372D01*
X144856897Y-99622901D01*
X144890143Y-99654039D01*
X144913086Y-99686055D01*
X144929340Y-99721930D01*
X144938285Y-99760291D01*
X144939573Y-99799655D01*
X144933158Y-99838515D01*
X144919284Y-99875376D01*
X144895226Y-99914065D01*
X144385888Y-100577847D01*
X144354750Y-100611093D01*
X144322733Y-100634036D01*
X144286859Y-100650290D01*
X144248499Y-100659235D01*
X144209134Y-100660523D01*
X144170278Y-100654108D01*
X144133410Y-100640232D01*
X144094724Y-100616176D01*
X143232603Y-99954647D01*
X143199357Y-99923509D01*
X143176414Y-99891493D01*
X143160160Y-99855618D01*
X143151215Y-99817257D01*
X143149927Y-99777893D01*
X143156342Y-99739033D01*
X143170216Y-99702172D01*
X143194274Y-99663483D01*
X143703612Y-98999701D01*
X143734750Y-98966455D01*
X143766767Y-98943512D01*
X143802641Y-98927258D01*
X143841001Y-98918313D01*
X143880366Y-98917025D01*
X143919222Y-98923440D01*
X143919222Y-98923440D01*
G37*
G36*
X160958998Y-98918313D02*
G01*
X160997359Y-98927258D01*
X161033234Y-98943512D01*
X161065250Y-98966455D01*
X161096388Y-98999701D01*
X161605726Y-99663483D01*
X161629782Y-99702169D01*
X161643658Y-99739037D01*
X161650073Y-99777893D01*
X161648785Y-99817258D01*
X161639840Y-99855618D01*
X161623586Y-99891492D01*
X161600643Y-99923509D01*
X161567397Y-99954647D01*
X160705276Y-100616176D01*
X160666587Y-100640234D01*
X160629726Y-100654108D01*
X160590866Y-100660523D01*
X160551502Y-100659235D01*
X160513141Y-100650290D01*
X160477266Y-100634036D01*
X160445250Y-100611093D01*
X160414112Y-100577847D01*
X159904774Y-99914065D01*
X159880718Y-99875379D01*
X159866842Y-99838511D01*
X159860427Y-99799655D01*
X159861715Y-99760290D01*
X159870660Y-99721930D01*
X159886914Y-99686056D01*
X159909857Y-99654039D01*
X159943103Y-99622901D01*
X160805224Y-98961372D01*
X160843913Y-98937314D01*
X160880774Y-98923440D01*
X160919634Y-98917025D01*
X160958998Y-98918313D01*
X160958998Y-98918313D01*
G37*
G36*
X147626155Y-98886793D02*
G01*
X147669755Y-98900019D01*
X148673707Y-99315870D01*
X148713888Y-99337347D01*
X148744335Y-99362334D01*
X148769319Y-99392778D01*
X148787885Y-99427513D01*
X148799320Y-99465207D01*
X148803180Y-99504402D01*
X148799320Y-99543597D01*
X148786094Y-99587198D01*
X148756927Y-99657613D01*
X148490601Y-100300582D01*
X148490598Y-100300588D01*
X148465914Y-100360180D01*
X148444437Y-100400361D01*
X148419452Y-100430806D01*
X148389006Y-100455792D01*
X148354270Y-100474359D01*
X148316577Y-100485793D01*
X148277382Y-100489653D01*
X148238187Y-100485793D01*
X148194587Y-100472567D01*
X147190635Y-100056716D01*
X147150454Y-100035239D01*
X147120007Y-100010252D01*
X147095023Y-99979808D01*
X147076457Y-99945073D01*
X147065022Y-99907379D01*
X147061162Y-99868184D01*
X147065022Y-99828989D01*
X147078248Y-99785388D01*
X147226485Y-99427513D01*
X147373741Y-99072004D01*
X147373744Y-99071998D01*
X147398428Y-99012406D01*
X147419905Y-98972225D01*
X147444890Y-98941780D01*
X147475336Y-98916794D01*
X147510072Y-98898227D01*
X147547765Y-98886793D01*
X147586960Y-98882933D01*
X147626155Y-98886793D01*
X147626155Y-98886793D01*
G37*
G36*
X157252235Y-98886793D02*
G01*
X157289929Y-98898228D01*
X157324664Y-98916794D01*
X157355108Y-98941778D01*
X157380095Y-98972225D01*
X157401572Y-99012406D01*
X157426256Y-99071998D01*
X157426259Y-99072004D01*
X157573515Y-99427513D01*
X157721752Y-99785388D01*
X157734978Y-99828989D01*
X157738838Y-99868184D01*
X157734978Y-99907379D01*
X157723544Y-99945072D01*
X157704977Y-99979808D01*
X157679991Y-100010254D01*
X157649546Y-100035239D01*
X157609365Y-100056716D01*
X156605413Y-100472567D01*
X156561813Y-100485793D01*
X156522618Y-100489653D01*
X156483423Y-100485793D01*
X156445729Y-100474358D01*
X156410994Y-100455792D01*
X156380550Y-100430808D01*
X156355563Y-100400361D01*
X156334086Y-100360180D01*
X156309402Y-100300588D01*
X156309399Y-100300582D01*
X156043073Y-99657613D01*
X156013906Y-99587198D01*
X156000680Y-99543597D01*
X155996820Y-99504402D01*
X156000680Y-99465207D01*
X156012114Y-99427514D01*
X156030681Y-99392778D01*
X156055667Y-99362332D01*
X156086112Y-99337347D01*
X156126293Y-99315870D01*
X157130245Y-98900019D01*
X157173845Y-98886793D01*
X157213040Y-98882933D01*
X157252235Y-98886793D01*
X157252235Y-98886793D01*
G37*
G36*
X159711038Y-97291939D02*
G01*
X159749399Y-97300884D01*
X159785274Y-97317138D01*
X159817290Y-97340081D01*
X159848428Y-97373327D01*
X160357766Y-98037109D01*
X160381822Y-98075795D01*
X160395698Y-98112663D01*
X160402113Y-98151519D01*
X160400825Y-98190884D01*
X160391880Y-98229244D01*
X160375626Y-98265118D01*
X160352683Y-98297135D01*
X160319437Y-98328273D01*
X159457316Y-98989802D01*
X159418627Y-99013860D01*
X159381766Y-99027734D01*
X159342906Y-99034149D01*
X159303542Y-99032861D01*
X159265181Y-99023916D01*
X159229306Y-99007662D01*
X159197290Y-98984719D01*
X159166152Y-98951473D01*
X158656814Y-98287691D01*
X158632758Y-98249005D01*
X158618882Y-98212137D01*
X158612467Y-98173281D01*
X158613755Y-98133916D01*
X158622700Y-98095556D01*
X158638954Y-98059682D01*
X158661897Y-98027665D01*
X158695143Y-97996527D01*
X159557264Y-97334998D01*
X159595953Y-97310940D01*
X159632814Y-97297066D01*
X159671674Y-97290651D01*
X159711038Y-97291939D01*
X159711038Y-97291939D01*
G37*
G36*
X145167182Y-97297066D02*
G01*
X145204050Y-97310942D01*
X145242736Y-97334998D01*
X146104857Y-97996527D01*
X146138103Y-98027665D01*
X146161046Y-98059681D01*
X146177300Y-98095556D01*
X146186245Y-98133917D01*
X146187533Y-98173281D01*
X146181118Y-98212141D01*
X146167244Y-98249002D01*
X146143186Y-98287691D01*
X145633848Y-98951473D01*
X145602710Y-98984719D01*
X145570693Y-99007662D01*
X145534819Y-99023916D01*
X145496459Y-99032861D01*
X145457094Y-99034149D01*
X145418238Y-99027734D01*
X145381370Y-99013858D01*
X145342684Y-98989802D01*
X144480563Y-98328273D01*
X144447317Y-98297135D01*
X144424374Y-98265119D01*
X144408120Y-98229244D01*
X144399175Y-98190883D01*
X144397887Y-98151519D01*
X144404302Y-98112659D01*
X144418176Y-98075798D01*
X144442234Y-98037109D01*
X144951572Y-97373327D01*
X144982710Y-97340081D01*
X145014727Y-97317138D01*
X145050601Y-97300884D01*
X145088961Y-97291939D01*
X145128326Y-97290651D01*
X145167182Y-97297066D01*
X145167182Y-97297066D01*
G37*
G36*
X163338515Y-96366842D02*
G01*
X163375376Y-96380716D01*
X163414065Y-96404774D01*
X164077847Y-96914112D01*
X164111093Y-96945250D01*
X164134036Y-96977267D01*
X164150290Y-97013141D01*
X164159235Y-97051501D01*
X164160523Y-97090866D01*
X164154108Y-97129722D01*
X164140232Y-97166590D01*
X164116176Y-97205276D01*
X163454647Y-98067397D01*
X163423509Y-98100643D01*
X163391493Y-98123586D01*
X163355618Y-98139840D01*
X163317257Y-98148785D01*
X163277893Y-98150073D01*
X163239033Y-98143658D01*
X163202172Y-98129784D01*
X163163483Y-98105726D01*
X162499701Y-97596388D01*
X162466455Y-97565250D01*
X162443512Y-97533233D01*
X162427258Y-97497359D01*
X162418313Y-97458999D01*
X162417025Y-97419634D01*
X162423440Y-97380778D01*
X162437316Y-97343910D01*
X162461372Y-97305224D01*
X163122901Y-96443103D01*
X163154039Y-96409857D01*
X163186055Y-96386914D01*
X163221930Y-96370660D01*
X163260291Y-96361715D01*
X163299655Y-96360427D01*
X163338515Y-96366842D01*
X163338515Y-96366842D01*
G37*
G36*
X141539710Y-96361715D02*
G01*
X141578070Y-96370660D01*
X141613944Y-96386914D01*
X141645961Y-96409857D01*
X141677099Y-96443103D01*
X142338628Y-97305224D01*
X142362686Y-97343913D01*
X142376560Y-97380774D01*
X142382975Y-97419634D01*
X142381687Y-97458998D01*
X142372742Y-97497359D01*
X142356488Y-97533234D01*
X142333545Y-97565250D01*
X142300299Y-97596388D01*
X141636517Y-98105726D01*
X141597831Y-98129782D01*
X141560963Y-98143658D01*
X141522107Y-98150073D01*
X141482742Y-98148785D01*
X141444382Y-98139840D01*
X141408508Y-98123586D01*
X141376491Y-98100643D01*
X141345353Y-98067397D01*
X140683824Y-97205276D01*
X140659766Y-97166587D01*
X140645892Y-97129726D01*
X140639477Y-97090866D01*
X140640765Y-97051502D01*
X140649710Y-97013141D01*
X140665964Y-96977266D01*
X140688907Y-96945250D01*
X140722153Y-96914112D01*
X141385935Y-96404774D01*
X141424621Y-96380718D01*
X141461489Y-96366842D01*
X141500345Y-96360427D01*
X141539710Y-96361715D01*
X141539710Y-96361715D01*
G37*
G36*
X156951000Y-97785000D02*
G01*
X155149000Y-97785000D01*
X155149000Y-97033000D01*
X156951000Y-97033000D01*
X156951000Y-97785000D01*
X156951000Y-97785000D01*
G37*
G36*
X149651000Y-97785000D02*
G01*
X147849000Y-97785000D01*
X147849000Y-97033000D01*
X149651000Y-97033000D01*
X149651000Y-97785000D01*
X149651000Y-97785000D01*
G37*
G36*
X161712141Y-95118882D02*
G01*
X161749002Y-95132756D01*
X161787691Y-95156814D01*
X162451473Y-95666152D01*
X162484719Y-95697290D01*
X162507662Y-95729307D01*
X162523916Y-95765181D01*
X162532861Y-95803541D01*
X162534149Y-95842906D01*
X162527734Y-95881762D01*
X162513858Y-95918630D01*
X162489802Y-95957316D01*
X161828273Y-96819437D01*
X161797135Y-96852683D01*
X161765119Y-96875626D01*
X161729244Y-96891880D01*
X161690883Y-96900825D01*
X161651519Y-96902113D01*
X161612659Y-96895698D01*
X161575798Y-96881824D01*
X161537109Y-96857766D01*
X160873327Y-96348428D01*
X160840081Y-96317290D01*
X160817138Y-96285273D01*
X160800884Y-96249399D01*
X160791939Y-96211039D01*
X160790651Y-96171674D01*
X160797066Y-96132818D01*
X160810942Y-96095950D01*
X160834998Y-96057264D01*
X161496527Y-95195143D01*
X161527665Y-95161897D01*
X161559681Y-95138954D01*
X161595556Y-95122700D01*
X161633917Y-95113755D01*
X161673281Y-95112467D01*
X161712141Y-95118882D01*
X161712141Y-95118882D01*
G37*
G36*
X143166084Y-95113755D02*
G01*
X143204444Y-95122700D01*
X143240318Y-95138954D01*
X143272335Y-95161897D01*
X143303473Y-95195143D01*
X143965002Y-96057264D01*
X143989060Y-96095953D01*
X144002934Y-96132814D01*
X144009349Y-96171674D01*
X144008061Y-96211038D01*
X143999116Y-96249399D01*
X143982862Y-96285274D01*
X143959919Y-96317290D01*
X143926673Y-96348428D01*
X143262891Y-96857766D01*
X143224205Y-96881822D01*
X143187337Y-96895698D01*
X143148481Y-96902113D01*
X143109116Y-96900825D01*
X143070756Y-96891880D01*
X143034882Y-96875626D01*
X143002865Y-96852683D01*
X142971727Y-96819437D01*
X142310198Y-95957316D01*
X142286140Y-95918627D01*
X142272266Y-95881766D01*
X142265851Y-95842906D01*
X142267139Y-95803542D01*
X142276084Y-95765181D01*
X142292338Y-95729306D01*
X142315281Y-95697290D01*
X142348527Y-95666152D01*
X143012309Y-95156814D01*
X143050995Y-95132758D01*
X143087863Y-95118882D01*
X143126719Y-95112467D01*
X143166084Y-95113755D01*
X143166084Y-95113755D01*
G37*
G36*
X149651000Y-96515000D02*
G01*
X147849000Y-96515000D01*
X147849000Y-95763000D01*
X149651000Y-95763000D01*
X149651000Y-96515000D01*
X149651000Y-96515000D01*
G37*
G36*
X156951000Y-96515000D02*
G01*
X155149000Y-96515000D01*
X155149000Y-95763000D01*
X156951000Y-95763000D01*
X156951000Y-96515000D01*
X156951000Y-96515000D01*
G37*
G36*
X159592674Y-94383465D02*
G01*
X159630367Y-94394899D01*
X159665103Y-94413466D01*
X159695548Y-94438452D01*
X159720534Y-94468897D01*
X159739101Y-94503633D01*
X159750535Y-94541326D01*
X159755000Y-94586661D01*
X159755000Y-95423339D01*
X159750535Y-95468674D01*
X159739101Y-95506367D01*
X159720534Y-95541103D01*
X159695548Y-95571548D01*
X159665103Y-95596534D01*
X159630367Y-95615101D01*
X159592674Y-95626535D01*
X159547339Y-95631000D01*
X158460661Y-95631000D01*
X158415326Y-95626535D01*
X158377633Y-95615101D01*
X158342897Y-95596534D01*
X158312452Y-95571548D01*
X158287466Y-95541103D01*
X158268899Y-95506367D01*
X158257465Y-95468674D01*
X158253000Y-95423339D01*
X158253000Y-94586661D01*
X158257465Y-94541326D01*
X158268899Y-94503633D01*
X158287466Y-94468897D01*
X158312452Y-94438452D01*
X158342897Y-94413466D01*
X158377633Y-94394899D01*
X158415326Y-94383465D01*
X158460661Y-94379000D01*
X159547339Y-94379000D01*
X159592674Y-94383465D01*
X159592674Y-94383465D01*
G37*
G36*
X156951000Y-95245000D02*
G01*
X155149000Y-95245000D01*
X155149000Y-94493000D01*
X156951000Y-94493000D01*
X156951000Y-95245000D01*
X156951000Y-95245000D01*
G37*
G36*
X149651000Y-95245000D02*
G01*
X147849000Y-95245000D01*
X147849000Y-94493000D01*
X149651000Y-94493000D01*
X149651000Y-95245000D01*
X149651000Y-95245000D01*
G37*
G36*
X149651000Y-93975000D02*
G01*
X147849000Y-93975000D01*
X147849000Y-93223000D01*
X149651000Y-93223000D01*
X149651000Y-93975000D01*
X149651000Y-93975000D01*
G37*
G36*
X156951000Y-93975000D02*
G01*
X155149000Y-93975000D01*
X155149000Y-93223000D01*
X156951000Y-93223000D01*
X156951000Y-93975000D01*
X156951000Y-93975000D01*
G37*
G36*
X159592674Y-92333465D02*
G01*
X159630367Y-92344899D01*
X159665103Y-92363466D01*
X159695548Y-92388452D01*
X159720534Y-92418897D01*
X159739101Y-92453633D01*
X159750535Y-92491326D01*
X159755000Y-92536661D01*
X159755000Y-93373339D01*
X159750535Y-93418674D01*
X159739101Y-93456367D01*
X159720534Y-93491103D01*
X159695548Y-93521548D01*
X159665103Y-93546534D01*
X159630367Y-93565101D01*
X159592674Y-93576535D01*
X159547339Y-93581000D01*
X158460661Y-93581000D01*
X158415326Y-93576535D01*
X158377633Y-93565101D01*
X158342897Y-93546534D01*
X158312452Y-93521548D01*
X158287466Y-93491103D01*
X158268899Y-93456367D01*
X158257465Y-93418674D01*
X158253000Y-93373339D01*
X158253000Y-92536661D01*
X158257465Y-92491326D01*
X158268899Y-92453633D01*
X158287466Y-92418897D01*
X158312452Y-92388452D01*
X158342897Y-92363466D01*
X158377633Y-92344899D01*
X158415326Y-92333465D01*
X158460661Y-92329000D01*
X159547339Y-92329000D01*
X159592674Y-92333465D01*
X159592674Y-92333465D01*
G37*
G36*
X143463674Y-89366965D02*
G01*
X143501367Y-89378399D01*
X143536103Y-89396966D01*
X143566548Y-89421952D01*
X143591534Y-89452397D01*
X143610101Y-89487133D01*
X143621535Y-89524826D01*
X143626000Y-89570161D01*
X143626000Y-90406839D01*
X143621535Y-90452174D01*
X143610101Y-90489867D01*
X143591534Y-90524603D01*
X143566548Y-90555048D01*
X143536103Y-90580034D01*
X143501367Y-90598601D01*
X143463674Y-90610035D01*
X143418339Y-90614500D01*
X142331661Y-90614500D01*
X142286326Y-90610035D01*
X142248633Y-90598601D01*
X142213897Y-90580034D01*
X142183452Y-90555048D01*
X142158466Y-90524603D01*
X142139899Y-90489867D01*
X142128465Y-90452174D01*
X142124000Y-90406839D01*
X142124000Y-89570161D01*
X142128465Y-89524826D01*
X142139899Y-89487133D01*
X142158466Y-89452397D01*
X142183452Y-89421952D01*
X142213897Y-89396966D01*
X142248633Y-89378399D01*
X142286326Y-89366965D01*
X142331661Y-89362500D01*
X143418339Y-89362500D01*
X143463674Y-89366965D01*
X143463674Y-89366965D01*
G37*
G36*
X162513674Y-89366965D02*
G01*
X162551367Y-89378399D01*
X162586103Y-89396966D01*
X162616548Y-89421952D01*
X162641534Y-89452397D01*
X162660101Y-89487133D01*
X162671535Y-89524826D01*
X162676000Y-89570161D01*
X162676000Y-90406839D01*
X162671535Y-90452174D01*
X162660101Y-90489867D01*
X162641534Y-90524603D01*
X162616548Y-90555048D01*
X162586103Y-90580034D01*
X162551367Y-90598601D01*
X162513674Y-90610035D01*
X162468339Y-90614500D01*
X161381661Y-90614500D01*
X161336326Y-90610035D01*
X161298633Y-90598601D01*
X161263897Y-90580034D01*
X161233452Y-90555048D01*
X161208466Y-90524603D01*
X161189899Y-90489867D01*
X161178465Y-90452174D01*
X161174000Y-90406839D01*
X161174000Y-89570161D01*
X161178465Y-89524826D01*
X161189899Y-89487133D01*
X161208466Y-89452397D01*
X161233452Y-89421952D01*
X161263897Y-89396966D01*
X161298633Y-89378399D01*
X161336326Y-89366965D01*
X161381661Y-89362500D01*
X162468339Y-89362500D01*
X162513674Y-89366965D01*
X162513674Y-89366965D01*
G37*
G36*
X159338674Y-89366965D02*
G01*
X159376367Y-89378399D01*
X159411103Y-89396966D01*
X159441548Y-89421952D01*
X159466534Y-89452397D01*
X159485101Y-89487133D01*
X159496535Y-89524826D01*
X159501000Y-89570161D01*
X159501000Y-90406839D01*
X159496535Y-90452174D01*
X159485101Y-90489867D01*
X159466534Y-90524603D01*
X159441548Y-90555048D01*
X159411103Y-90580034D01*
X159376367Y-90598601D01*
X159338674Y-90610035D01*
X159293339Y-90614500D01*
X158206661Y-90614500D01*
X158161326Y-90610035D01*
X158123633Y-90598601D01*
X158088897Y-90580034D01*
X158058452Y-90555048D01*
X158033466Y-90524603D01*
X158014899Y-90489867D01*
X158003465Y-90452174D01*
X157999000Y-90406839D01*
X157999000Y-89570161D01*
X158003465Y-89524826D01*
X158014899Y-89487133D01*
X158033466Y-89452397D01*
X158058452Y-89421952D01*
X158088897Y-89396966D01*
X158123633Y-89378399D01*
X158161326Y-89366965D01*
X158206661Y-89362500D01*
X159293339Y-89362500D01*
X159338674Y-89366965D01*
X159338674Y-89366965D01*
G37*
G36*
X146638674Y-89366965D02*
G01*
X146676367Y-89378399D01*
X146711103Y-89396966D01*
X146741548Y-89421952D01*
X146766534Y-89452397D01*
X146785101Y-89487133D01*
X146796535Y-89524826D01*
X146801000Y-89570161D01*
X146801000Y-90406839D01*
X146796535Y-90452174D01*
X146785101Y-90489867D01*
X146766534Y-90524603D01*
X146741548Y-90555048D01*
X146711103Y-90580034D01*
X146676367Y-90598601D01*
X146638674Y-90610035D01*
X146593339Y-90614500D01*
X145506661Y-90614500D01*
X145461326Y-90610035D01*
X145423633Y-90598601D01*
X145388897Y-90580034D01*
X145358452Y-90555048D01*
X145333466Y-90524603D01*
X145314899Y-90489867D01*
X145303465Y-90452174D01*
X145299000Y-90406839D01*
X145299000Y-89570161D01*
X145303465Y-89524826D01*
X145314899Y-89487133D01*
X145333466Y-89452397D01*
X145358452Y-89421952D01*
X145388897Y-89396966D01*
X145423633Y-89378399D01*
X145461326Y-89366965D01*
X145506661Y-89362500D01*
X146593339Y-89362500D01*
X146638674Y-89366965D01*
X146638674Y-89366965D01*
G37*
G36*
X152988674Y-89366965D02*
G01*
X153026367Y-89378399D01*
X153061103Y-89396966D01*
X153091548Y-89421952D01*
X153116534Y-89452397D01*
X153135101Y-89487133D01*
X153146535Y-89524826D01*
X153151000Y-89570161D01*
X153151000Y-90406839D01*
X153146535Y-90452174D01*
X153135101Y-90489867D01*
X153116534Y-90524603D01*
X153091548Y-90555048D01*
X153061103Y-90580034D01*
X153026367Y-90598601D01*
X152988674Y-90610035D01*
X152943339Y-90614500D01*
X151856661Y-90614500D01*
X151811326Y-90610035D01*
X151773633Y-90598601D01*
X151738897Y-90580034D01*
X151708452Y-90555048D01*
X151683466Y-90524603D01*
X151664899Y-90489867D01*
X151653465Y-90452174D01*
X151649000Y-90406839D01*
X151649000Y-89570161D01*
X151653465Y-89524826D01*
X151664899Y-89487133D01*
X151683466Y-89452397D01*
X151708452Y-89421952D01*
X151738897Y-89396966D01*
X151773633Y-89378399D01*
X151811326Y-89366965D01*
X151856661Y-89362500D01*
X152943339Y-89362500D01*
X152988674Y-89366965D01*
X152988674Y-89366965D01*
G37*
G36*
X149813674Y-89366965D02*
G01*
X149851367Y-89378399D01*
X149886103Y-89396966D01*
X149916548Y-89421952D01*
X149941534Y-89452397D01*
X149960101Y-89487133D01*
X149971535Y-89524826D01*
X149976000Y-89570161D01*
X149976000Y-90406839D01*
X149971535Y-90452174D01*
X149960101Y-90489867D01*
X149941534Y-90524603D01*
X149916548Y-90555048D01*
X149886103Y-90580034D01*
X149851367Y-90598601D01*
X149813674Y-90610035D01*
X149768339Y-90614500D01*
X148681661Y-90614500D01*
X148636326Y-90610035D01*
X148598633Y-90598601D01*
X148563897Y-90580034D01*
X148533452Y-90555048D01*
X148508466Y-90524603D01*
X148489899Y-90489867D01*
X148478465Y-90452174D01*
X148474000Y-90406839D01*
X148474000Y-89570161D01*
X148478465Y-89524826D01*
X148489899Y-89487133D01*
X148508466Y-89452397D01*
X148533452Y-89421952D01*
X148563897Y-89396966D01*
X148598633Y-89378399D01*
X148636326Y-89366965D01*
X148681661Y-89362500D01*
X149768339Y-89362500D01*
X149813674Y-89366965D01*
X149813674Y-89366965D01*
G37*
G36*
X156163674Y-89366965D02*
G01*
X156201367Y-89378399D01*
X156236103Y-89396966D01*
X156266548Y-89421952D01*
X156291534Y-89452397D01*
X156310101Y-89487133D01*
X156321535Y-89524826D01*
X156326000Y-89570161D01*
X156326000Y-90406839D01*
X156321535Y-90452174D01*
X156310101Y-90489867D01*
X156291534Y-90524603D01*
X156266548Y-90555048D01*
X156236103Y-90580034D01*
X156201367Y-90598601D01*
X156163674Y-90610035D01*
X156118339Y-90614500D01*
X155031661Y-90614500D01*
X154986326Y-90610035D01*
X154948633Y-90598601D01*
X154913897Y-90580034D01*
X154883452Y-90555048D01*
X154858466Y-90524603D01*
X154839899Y-90489867D01*
X154828465Y-90452174D01*
X154824000Y-90406839D01*
X154824000Y-89570161D01*
X154828465Y-89524826D01*
X154839899Y-89487133D01*
X154858466Y-89452397D01*
X154883452Y-89421952D01*
X154913897Y-89396966D01*
X154948633Y-89378399D01*
X154986326Y-89366965D01*
X155031661Y-89362500D01*
X156118339Y-89362500D01*
X156163674Y-89366965D01*
X156163674Y-89366965D01*
G37*
G36*
X156163674Y-87316965D02*
G01*
X156201367Y-87328399D01*
X156236103Y-87346966D01*
X156266548Y-87371952D01*
X156291534Y-87402397D01*
X156310101Y-87437133D01*
X156321535Y-87474826D01*
X156326000Y-87520161D01*
X156326000Y-88356839D01*
X156321535Y-88402174D01*
X156310101Y-88439867D01*
X156291534Y-88474603D01*
X156266548Y-88505048D01*
X156236103Y-88530034D01*
X156201367Y-88548601D01*
X156163674Y-88560035D01*
X156118339Y-88564500D01*
X155031661Y-88564500D01*
X154986326Y-88560035D01*
X154948633Y-88548601D01*
X154913897Y-88530034D01*
X154883452Y-88505048D01*
X154858466Y-88474603D01*
X154839899Y-88439867D01*
X154828465Y-88402174D01*
X154824000Y-88356839D01*
X154824000Y-87520161D01*
X154828465Y-87474826D01*
X154839899Y-87437133D01*
X154858466Y-87402397D01*
X154883452Y-87371952D01*
X154913897Y-87346966D01*
X154948633Y-87328399D01*
X154986326Y-87316965D01*
X155031661Y-87312500D01*
X156118339Y-87312500D01*
X156163674Y-87316965D01*
X156163674Y-87316965D01*
G37*
G36*
X159338674Y-87316965D02*
G01*
X159376367Y-87328399D01*
X159411103Y-87346966D01*
X159441548Y-87371952D01*
X159466534Y-87402397D01*
X159485101Y-87437133D01*
X159496535Y-87474826D01*
X159501000Y-87520161D01*
X159501000Y-88356839D01*
X159496535Y-88402174D01*
X159485101Y-88439867D01*
X159466534Y-88474603D01*
X159441548Y-88505048D01*
X159411103Y-88530034D01*
X159376367Y-88548601D01*
X159338674Y-88560035D01*
X159293339Y-88564500D01*
X158206661Y-88564500D01*
X158161326Y-88560035D01*
X158123633Y-88548601D01*
X158088897Y-88530034D01*
X158058452Y-88505048D01*
X158033466Y-88474603D01*
X158014899Y-88439867D01*
X158003465Y-88402174D01*
X157999000Y-88356839D01*
X157999000Y-87520161D01*
X158003465Y-87474826D01*
X158014899Y-87437133D01*
X158033466Y-87402397D01*
X158058452Y-87371952D01*
X158088897Y-87346966D01*
X158123633Y-87328399D01*
X158161326Y-87316965D01*
X158206661Y-87312500D01*
X159293339Y-87312500D01*
X159338674Y-87316965D01*
X159338674Y-87316965D01*
G37*
G36*
X162513674Y-87316965D02*
G01*
X162551367Y-87328399D01*
X162586103Y-87346966D01*
X162616548Y-87371952D01*
X162641534Y-87402397D01*
X162660101Y-87437133D01*
X162671535Y-87474826D01*
X162676000Y-87520161D01*
X162676000Y-88356839D01*
X162671535Y-88402174D01*
X162660101Y-88439867D01*
X162641534Y-88474603D01*
X162616548Y-88505048D01*
X162586103Y-88530034D01*
X162551367Y-88548601D01*
X162513674Y-88560035D01*
X162468339Y-88564500D01*
X161381661Y-88564500D01*
X161336326Y-88560035D01*
X161298633Y-88548601D01*
X161263897Y-88530034D01*
X161233452Y-88505048D01*
X161208466Y-88474603D01*
X161189899Y-88439867D01*
X161178465Y-88402174D01*
X161174000Y-88356839D01*
X161174000Y-87520161D01*
X161178465Y-87474826D01*
X161189899Y-87437133D01*
X161208466Y-87402397D01*
X161233452Y-87371952D01*
X161263897Y-87346966D01*
X161298633Y-87328399D01*
X161336326Y-87316965D01*
X161381661Y-87312500D01*
X162468339Y-87312500D01*
X162513674Y-87316965D01*
X162513674Y-87316965D01*
G37*
G36*
X143463674Y-87316965D02*
G01*
X143501367Y-87328399D01*
X143536103Y-87346966D01*
X143566548Y-87371952D01*
X143591534Y-87402397D01*
X143610101Y-87437133D01*
X143621535Y-87474826D01*
X143626000Y-87520161D01*
X143626000Y-88356839D01*
X143621535Y-88402174D01*
X143610101Y-88439867D01*
X143591534Y-88474603D01*
X143566548Y-88505048D01*
X143536103Y-88530034D01*
X143501367Y-88548601D01*
X143463674Y-88560035D01*
X143418339Y-88564500D01*
X142331661Y-88564500D01*
X142286326Y-88560035D01*
X142248633Y-88548601D01*
X142213897Y-88530034D01*
X142183452Y-88505048D01*
X142158466Y-88474603D01*
X142139899Y-88439867D01*
X142128465Y-88402174D01*
X142124000Y-88356839D01*
X142124000Y-87520161D01*
X142128465Y-87474826D01*
X142139899Y-87437133D01*
X142158466Y-87402397D01*
X142183452Y-87371952D01*
X142213897Y-87346966D01*
X142248633Y-87328399D01*
X142286326Y-87316965D01*
X142331661Y-87312500D01*
X143418339Y-87312500D01*
X143463674Y-87316965D01*
X143463674Y-87316965D01*
G37*
G36*
X146638674Y-87316965D02*
G01*
X146676367Y-87328399D01*
X146711103Y-87346966D01*
X146741548Y-87371952D01*
X146766534Y-87402397D01*
X146785101Y-87437133D01*
X146796535Y-87474826D01*
X146801000Y-87520161D01*
X146801000Y-88356839D01*
X146796535Y-88402174D01*
X146785101Y-88439867D01*
X146766534Y-88474603D01*
X146741548Y-88505048D01*
X146711103Y-88530034D01*
X146676367Y-88548601D01*
X146638674Y-88560035D01*
X146593339Y-88564500D01*
X145506661Y-88564500D01*
X145461326Y-88560035D01*
X145423633Y-88548601D01*
X145388897Y-88530034D01*
X145358452Y-88505048D01*
X145333466Y-88474603D01*
X145314899Y-88439867D01*
X145303465Y-88402174D01*
X145299000Y-88356839D01*
X145299000Y-87520161D01*
X145303465Y-87474826D01*
X145314899Y-87437133D01*
X145333466Y-87402397D01*
X145358452Y-87371952D01*
X145388897Y-87346966D01*
X145423633Y-87328399D01*
X145461326Y-87316965D01*
X145506661Y-87312500D01*
X146593339Y-87312500D01*
X146638674Y-87316965D01*
X146638674Y-87316965D01*
G37*
G36*
X149813674Y-87316965D02*
G01*
X149851367Y-87328399D01*
X149886103Y-87346966D01*
X149916548Y-87371952D01*
X149941534Y-87402397D01*
X149960101Y-87437133D01*
X149971535Y-87474826D01*
X149976000Y-87520161D01*
X149976000Y-88356839D01*
X149971535Y-88402174D01*
X149960101Y-88439867D01*
X149941534Y-88474603D01*
X149916548Y-88505048D01*
X149886103Y-88530034D01*
X149851367Y-88548601D01*
X149813674Y-88560035D01*
X149768339Y-88564500D01*
X148681661Y-88564500D01*
X148636326Y-88560035D01*
X148598633Y-88548601D01*
X148563897Y-88530034D01*
X148533452Y-88505048D01*
X148508466Y-88474603D01*
X148489899Y-88439867D01*
X148478465Y-88402174D01*
X148474000Y-88356839D01*
X148474000Y-87520161D01*
X148478465Y-87474826D01*
X148489899Y-87437133D01*
X148508466Y-87402397D01*
X148533452Y-87371952D01*
X148563897Y-87346966D01*
X148598633Y-87328399D01*
X148636326Y-87316965D01*
X148681661Y-87312500D01*
X149768339Y-87312500D01*
X149813674Y-87316965D01*
X149813674Y-87316965D01*
G37*
G36*
X152988674Y-87316965D02*
G01*
X153026367Y-87328399D01*
X153061103Y-87346966D01*
X153091548Y-87371952D01*
X153116534Y-87402397D01*
X153135101Y-87437133D01*
X153146535Y-87474826D01*
X153151000Y-87520161D01*
X153151000Y-88356839D01*
X153146535Y-88402174D01*
X153135101Y-88439867D01*
X153116534Y-88474603D01*
X153091548Y-88505048D01*
X153061103Y-88530034D01*
X153026367Y-88548601D01*
X152988674Y-88560035D01*
X152943339Y-88564500D01*
X151856661Y-88564500D01*
X151811326Y-88560035D01*
X151773633Y-88548601D01*
X151738897Y-88530034D01*
X151708452Y-88505048D01*
X151683466Y-88474603D01*
X151664899Y-88439867D01*
X151653465Y-88402174D01*
X151649000Y-88356839D01*
X151649000Y-87520161D01*
X151653465Y-87474826D01*
X151664899Y-87437133D01*
X151683466Y-87402397D01*
X151708452Y-87371952D01*
X151738897Y-87346966D01*
X151773633Y-87328399D01*
X151811326Y-87316965D01*
X151856661Y-87312500D01*
X152943339Y-87312500D01*
X152988674Y-87316965D01*
X152988674Y-87316965D01*
G37*
G36*
X149251000Y-85501000D02*
G01*
X147599000Y-85501000D01*
X147599000Y-84099000D01*
X149251000Y-84099000D01*
X149251000Y-85501000D01*
X149251000Y-85501000D01*
G37*
G36*
X157201000Y-85501000D02*
G01*
X155549000Y-85501000D01*
X155549000Y-84099000D01*
X157201000Y-84099000D01*
X157201000Y-85501000D01*
X157201000Y-85501000D01*
G37*
G36*
X157201000Y-81001000D02*
G01*
X155549000Y-81001000D01*
X155549000Y-79599000D01*
X157201000Y-79599000D01*
X157201000Y-81001000D01*
X157201000Y-81001000D01*
G37*
G36*
X149251000Y-81001000D02*
G01*
X147599000Y-81001000D01*
X147599000Y-79599000D01*
X149251000Y-79599000D01*
X149251000Y-81001000D01*
X149251000Y-81001000D01*
G37*
G36*
X148316577Y-77314207D02*
G01*
X148354271Y-77325642D01*
X148389006Y-77344208D01*
X148419450Y-77369192D01*
X148444437Y-77399639D01*
X148465914Y-77439820D01*
X148490598Y-77499412D01*
X148490601Y-77499418D01*
X148701995Y-78009770D01*
X148786094Y-78212802D01*
X148799320Y-78256403D01*
X148803180Y-78295598D01*
X148799320Y-78334793D01*
X148787886Y-78372486D01*
X148769319Y-78407222D01*
X148744333Y-78437668D01*
X148713888Y-78462653D01*
X148673707Y-78484130D01*
X147669755Y-78899981D01*
X147626155Y-78913207D01*
X147586960Y-78917067D01*
X147547765Y-78913207D01*
X147510071Y-78901772D01*
X147475336Y-78883206D01*
X147444892Y-78858222D01*
X147419905Y-78827775D01*
X147398428Y-78787594D01*
X147373744Y-78728002D01*
X147373741Y-78727996D01*
X147102934Y-78074209D01*
X147078248Y-78014612D01*
X147065022Y-77971011D01*
X147061162Y-77931816D01*
X147065022Y-77892621D01*
X147076456Y-77854928D01*
X147095023Y-77820192D01*
X147120009Y-77789746D01*
X147150454Y-77764761D01*
X147190635Y-77743284D01*
X148194587Y-77327433D01*
X148238187Y-77314207D01*
X148277382Y-77310347D01*
X148316577Y-77314207D01*
X148316577Y-77314207D01*
G37*
G36*
X156561813Y-77314207D02*
G01*
X156605413Y-77327433D01*
X157609365Y-77743284D01*
X157649546Y-77764761D01*
X157679993Y-77789748D01*
X157704977Y-77820192D01*
X157723543Y-77854927D01*
X157734978Y-77892621D01*
X157738838Y-77931816D01*
X157734978Y-77971011D01*
X157721752Y-78014612D01*
X157697066Y-78074209D01*
X157426259Y-78727996D01*
X157426256Y-78728002D01*
X157401572Y-78787594D01*
X157380095Y-78827775D01*
X157355110Y-78858220D01*
X157324664Y-78883206D01*
X157289928Y-78901773D01*
X157252235Y-78913207D01*
X157213040Y-78917067D01*
X157173845Y-78913207D01*
X157130245Y-78899981D01*
X156126293Y-78484130D01*
X156086112Y-78462653D01*
X156055665Y-78437666D01*
X156030681Y-78407222D01*
X156012115Y-78372487D01*
X156000680Y-78334793D01*
X155996820Y-78295598D01*
X156000680Y-78256403D01*
X156013906Y-78212802D01*
X156098005Y-78009770D01*
X156309399Y-77499418D01*
X156309402Y-77499412D01*
X156334086Y-77439820D01*
X156355563Y-77399639D01*
X156380548Y-77369194D01*
X156410994Y-77344208D01*
X156445730Y-77325641D01*
X156483423Y-77314207D01*
X156522618Y-77310347D01*
X156561813Y-77314207D01*
X156561813Y-77314207D01*
G37*
G36*
X151417480Y-76638241D02*
G01*
X151454341Y-76652115D01*
X151487791Y-76672916D01*
X151516535Y-76699837D01*
X151539478Y-76731853D01*
X151555732Y-76767728D01*
X151566077Y-76812095D01*
X151574497Y-76876052D01*
X151574498Y-76876056D01*
X151640484Y-77377270D01*
X151675286Y-77641620D01*
X151676776Y-77687149D01*
X151670361Y-77726008D01*
X151656487Y-77762869D01*
X151635686Y-77796319D01*
X151608765Y-77825063D01*
X151576749Y-77848006D01*
X151540874Y-77864260D01*
X151496507Y-77874605D01*
X151432550Y-77883025D01*
X151432546Y-77883026D01*
X150483085Y-78008025D01*
X150483083Y-78008025D01*
X150419120Y-78016446D01*
X150373592Y-78017936D01*
X150334732Y-78011521D01*
X150297871Y-77997647D01*
X150264421Y-77976846D01*
X150235677Y-77949925D01*
X150212734Y-77917909D01*
X150196480Y-77882034D01*
X150186135Y-77837667D01*
X150176537Y-77764761D01*
X150085347Y-77072107D01*
X150085347Y-77072105D01*
X150076926Y-77008142D01*
X150075436Y-76962613D01*
X150081851Y-76923754D01*
X150095725Y-76886893D01*
X150116526Y-76853443D01*
X150143447Y-76824699D01*
X150175463Y-76801756D01*
X150211338Y-76785502D01*
X150255705Y-76775157D01*
X150319662Y-76766737D01*
X150319666Y-76766736D01*
X151269127Y-76641737D01*
X151269129Y-76641737D01*
X151333092Y-76633316D01*
X151378620Y-76631826D01*
X151417480Y-76638241D01*
X151417480Y-76638241D01*
G37*
G36*
X153466908Y-76633316D02*
G01*
X153530871Y-76641737D01*
X153530873Y-76641737D01*
X154480334Y-76766736D01*
X154480338Y-76766737D01*
X154544295Y-76775157D01*
X154588662Y-76785502D01*
X154624537Y-76801756D01*
X154656553Y-76824699D01*
X154683474Y-76853443D01*
X154704275Y-76886893D01*
X154718149Y-76923754D01*
X154724564Y-76962614D01*
X154723074Y-77008142D01*
X154714653Y-77072105D01*
X154714653Y-77072107D01*
X154623464Y-77764761D01*
X154613865Y-77837667D01*
X154603520Y-77882034D01*
X154587266Y-77917909D01*
X154564323Y-77949925D01*
X154535579Y-77976846D01*
X154502129Y-77997647D01*
X154465268Y-78011521D01*
X154426409Y-78017936D01*
X154380880Y-78016446D01*
X154316917Y-78008025D01*
X154316915Y-78008025D01*
X153367454Y-77883026D01*
X153367450Y-77883025D01*
X153303493Y-77874605D01*
X153259126Y-77864260D01*
X153223251Y-77848006D01*
X153191235Y-77825063D01*
X153164314Y-77796319D01*
X153143513Y-77762869D01*
X153129639Y-77726008D01*
X153123224Y-77687148D01*
X153124714Y-77641620D01*
X153159516Y-77377270D01*
X153225502Y-76876056D01*
X153225503Y-76876052D01*
X153233923Y-76812095D01*
X153244268Y-76767728D01*
X153260522Y-76731853D01*
X153283465Y-76699837D01*
X153312209Y-76672916D01*
X153345659Y-76652115D01*
X153382520Y-76638241D01*
X153421379Y-76631826D01*
X153466908Y-76633316D01*
X153466908Y-76633316D01*
G37*
G36*
X147532075Y-75420253D02*
G01*
X147569769Y-75431688D01*
X147604504Y-75450254D01*
X147634948Y-75475238D01*
X147659935Y-75505685D01*
X147681412Y-75545866D01*
X147706096Y-75605458D01*
X147706099Y-75605464D01*
X147860847Y-75979059D01*
X148001592Y-76318848D01*
X148014818Y-76362449D01*
X148018678Y-76401644D01*
X148014818Y-76440839D01*
X148003384Y-76478532D01*
X147984817Y-76513268D01*
X147959831Y-76543714D01*
X147929386Y-76568699D01*
X147889205Y-76590176D01*
X146885253Y-77006027D01*
X146841653Y-77019253D01*
X146802458Y-77023113D01*
X146763263Y-77019253D01*
X146725569Y-77007818D01*
X146690834Y-76989252D01*
X146660390Y-76964268D01*
X146635403Y-76933821D01*
X146613926Y-76893640D01*
X146589242Y-76834048D01*
X146589239Y-76834042D01*
X146318432Y-76180255D01*
X146293746Y-76120658D01*
X146280520Y-76077057D01*
X146276660Y-76037862D01*
X146280520Y-75998667D01*
X146291954Y-75960974D01*
X146310521Y-75926238D01*
X146335507Y-75895792D01*
X146365952Y-75870807D01*
X146406133Y-75849330D01*
X147410085Y-75433479D01*
X147453685Y-75420253D01*
X147492880Y-75416393D01*
X147532075Y-75420253D01*
X147532075Y-75420253D01*
G37*
G36*
X157346315Y-75420253D02*
G01*
X157389915Y-75433479D01*
X158393867Y-75849330D01*
X158434048Y-75870807D01*
X158464495Y-75895794D01*
X158489479Y-75926238D01*
X158508045Y-75960973D01*
X158519480Y-75998667D01*
X158523340Y-76037862D01*
X158519480Y-76077057D01*
X158506254Y-76120658D01*
X158481568Y-76180255D01*
X158210761Y-76834042D01*
X158210758Y-76834048D01*
X158186074Y-76893640D01*
X158164597Y-76933821D01*
X158139612Y-76964266D01*
X158109166Y-76989252D01*
X158074430Y-77007819D01*
X158036737Y-77019253D01*
X157997542Y-77023113D01*
X157958347Y-77019253D01*
X157914747Y-77006027D01*
X156910795Y-76590176D01*
X156870614Y-76568699D01*
X156840167Y-76543712D01*
X156815183Y-76513268D01*
X156796617Y-76478533D01*
X156785182Y-76440839D01*
X156781322Y-76401644D01*
X156785182Y-76362449D01*
X156798408Y-76318848D01*
X156939153Y-75979059D01*
X157093901Y-75605464D01*
X157093904Y-75605458D01*
X157118588Y-75545866D01*
X157140065Y-75505685D01*
X157165050Y-75475240D01*
X157195496Y-75450254D01*
X157230232Y-75431687D01*
X157267925Y-75420253D01*
X157307120Y-75416393D01*
X157346315Y-75420253D01*
X157346315Y-75420253D01*
G37*
G36*
X151149902Y-74605779D02*
G01*
X151186763Y-74619653D01*
X151220213Y-74640454D01*
X151248957Y-74667375D01*
X151271900Y-74699391D01*
X151288154Y-74735266D01*
X151298499Y-74779633D01*
X151306919Y-74843590D01*
X151306920Y-74843594D01*
X151391141Y-75483316D01*
X151407708Y-75609158D01*
X151409198Y-75654687D01*
X151402783Y-75693546D01*
X151388909Y-75730407D01*
X151368108Y-75763857D01*
X151341187Y-75792601D01*
X151309171Y-75815544D01*
X151273296Y-75831798D01*
X151228929Y-75842143D01*
X151164972Y-75850563D01*
X151164968Y-75850564D01*
X150215507Y-75975563D01*
X150215505Y-75975563D01*
X150151542Y-75983984D01*
X150106014Y-75985474D01*
X150067154Y-75979059D01*
X150030293Y-75965185D01*
X149996843Y-75944384D01*
X149968099Y-75917463D01*
X149945156Y-75885447D01*
X149928902Y-75849572D01*
X149918557Y-75805205D01*
X149908710Y-75730407D01*
X149817769Y-75039645D01*
X149817769Y-75039643D01*
X149809348Y-74975680D01*
X149807858Y-74930151D01*
X149814273Y-74891292D01*
X149828147Y-74854431D01*
X149848948Y-74820981D01*
X149875869Y-74792237D01*
X149907885Y-74769294D01*
X149943760Y-74753040D01*
X149988127Y-74742695D01*
X150052084Y-74734275D01*
X150052088Y-74734274D01*
X151001549Y-74609275D01*
X151001551Y-74609275D01*
X151065514Y-74600854D01*
X151111042Y-74599364D01*
X151149902Y-74605779D01*
X151149902Y-74605779D01*
G37*
G36*
X153734486Y-74600854D02*
G01*
X153798449Y-74609275D01*
X153798451Y-74609275D01*
X154747912Y-74734274D01*
X154747916Y-74734275D01*
X154811873Y-74742695D01*
X154856240Y-74753040D01*
X154892115Y-74769294D01*
X154924131Y-74792237D01*
X154951052Y-74820981D01*
X154971853Y-74854431D01*
X154985727Y-74891292D01*
X154992142Y-74930152D01*
X154990652Y-74975680D01*
X154982231Y-75039643D01*
X154982231Y-75039645D01*
X154891291Y-75730407D01*
X154881443Y-75805205D01*
X154871098Y-75849572D01*
X154854844Y-75885447D01*
X154831901Y-75917463D01*
X154803157Y-75944384D01*
X154769707Y-75965185D01*
X154732846Y-75979059D01*
X154693987Y-75985474D01*
X154648458Y-75983984D01*
X154584495Y-75975563D01*
X154584493Y-75975563D01*
X153635032Y-75850564D01*
X153635028Y-75850563D01*
X153571071Y-75842143D01*
X153526704Y-75831798D01*
X153490829Y-75815544D01*
X153458813Y-75792601D01*
X153431892Y-75763857D01*
X153411091Y-75730407D01*
X153397217Y-75693546D01*
X153390802Y-75654686D01*
X153392292Y-75609158D01*
X153408859Y-75483316D01*
X153493080Y-74843594D01*
X153493081Y-74843590D01*
X153501501Y-74779633D01*
X153511846Y-74735266D01*
X153528100Y-74699391D01*
X153551043Y-74667375D01*
X153579787Y-74640454D01*
X153613237Y-74619653D01*
X153650098Y-74605779D01*
X153688957Y-74599364D01*
X153734486Y-74600854D01*
X153734486Y-74600854D01*
G37*
M02*
