  0
SECTION
  2
HEADER
  9
$ACADVER
  1
AC1014
  9
$HANDSEED
  5
FFFF
  9
$MEASUREMENT
 70
     1
  0
ENDSEC
  0
SECTION
  2
TABLES
  0
TABLE
  2
VPORT
  5
8
330
0
100
AcDbSymbolTable
 70
     4
  0
VPORT
  5
2E
330
8
100
AcDbSymbolTableRecord
100
AcDbViewportTableRecord
  2
*ACTIVE
 70
     0
 10
0.0
 20
0.0
 11
1.0
 21
1.0
 12
210.0
 22
148.5
 13
0.0
 23
0.0
 14
10.0
 24
10.0
 15
10.0
 25
10.0
 16
0.0
 26
0.0
 36
1.0
 17
0.0
 27
0.0
 37
0.0
 40
341.0
 41
1.24
 42
50.0
 43
0.0
 44
0.0
 50
0.0
 51
0.0
 71
     0
 72
   100
 73
     1
 74
     3
 75
     0
 76
     0
 77
     0
 78
     0
  0
ENDTAB
  0
TABLE
  2
LTYPE
  5
5
330
0
100
AcDbSymbolTable
 70
     1
  0
LTYPE
  5
14
330
5
100
AcDbSymbolTableRecord
100
AcDbLinetypeTableRecord
  2
BYBLOCK
 70
     0
  3

 72
    65
 73
     0
 40
0.0
  0
LTYPE
  5
15
330
5
100
AcDbSymbolTableRecord
100
AcDbLinetypeTableRecord
  2
BYLAYER
 70
     0
  3

 72
    65
 73
     0
 40
0.0
  0
LTYPE
  5
16
330
5
100
AcDbSymbolTableRecord
100
AcDbLinetypeTableRecord
  2
CONTINUOUS
 70
     0
  3
Solid line
 72
    65
 73
     0
 40
0.0
  0
ENDTAB
  0
TABLE
  2
LAYER
  5
2
100
AcDbSymbolTable
 70
2
  0
LAYER
  5
50
100
AcDbSymbolTableRecord
100
AcDbLayerTableRecord
  2
0
 70
0
  6
CONTINUOUS
  0
LAYER
  5
51
100
AcDbSymbolTableRecord
100
AcDbLayerTableRecord
  2
Layer_1
 70
0
  6
CONTINUOUS
  0
ENDTAB
  0
TABLE
  2
STYLE
  5
3
330
0
100
AcDbSymbolTable
 70
     1
  0
STYLE
  5
11
330
3
100
AcDbSymbolTableRecord
100
AcDbTextStyleTableRecord
  2
STANDARD
 70
     0
 40
0.0
 41
1.0
 50
0.0
 71
     0
 42
2.5
  3
txt
  4

  0
ENDTAB
  0
TABLE
  2
VIEW
  5
6
330
0
100
AcDbSymbolTable
 70
     0
  0
ENDTAB
  0
TABLE
  2
UCS
  5
7
330
0
100
AcDbSymbolTable
 70
     0
  0
ENDTAB
  0
TABLE
  2
APPID
  5
9
330
0
100
AcDbSymbolTable
 70
     2
  0
APPID
  5
12
330
9
100
AcDbSymbolTableRecord
100
AcDbRegAppTableRecord
  2
ACAD
 70
     0
  0
ENDTAB
  0
TABLE
  2
DIMSTYLE
  5
A
330
0
100
AcDbSymbolTable
 70
     1
  0
DIMSTYLE
105
27
330
A
100
AcDbSymbolTableRecord
100
AcDbDimStyleTableRecord
  2
ISO-25
 70
     0
  3

  4

  5

  6

  7

 40
1.0
 41
2.5
 42
0.625
 43
3.75
 44
1.25
 45
0.0
 46
0.0
 47
0.0
 48
0.0
140
2.5
141
2.5
142
0.0
143
0.03937007874016
144
1.0
145
0.0
146
1.0
147
0.625
 71
     0
 72
     0
 73
     0
 74
     0
 75
     0
 76
     0
 77
     1
 78
     8
170
     0
171
     3
172
     1
173
     0
174
     0
175
     0
176
     0
177
     0
178
     0
270
     2
271
     2
272
     2
273
     2
274
     3
340
11
275
     0
280
     0
281
     0
282
     0
283
     0
284
     8
285
     0
286
     0
287
     3
288
     0
  0
ENDTAB
  0
TABLE
  2
BLOCK_RECORD
  5
1
330
0
100
AcDbSymbolTable
 70
     1
  0
BLOCK_RECORD
  5
1F
330
1
100
AcDbSymbolTableRecord
100
AcDbBlockTableRecord
  2
*MODEL_SPACE
  0
BLOCK_RECORD
  5
1B
330
1
100
AcDbSymbolTableRecord
100
AcDbBlockTableRecord
  2
*PAPER_SPACE
  0
ENDTAB
  0
ENDSEC
  0
SECTION
  2
BLOCKS
  0
BLOCK
  5
20
330
1F
100
AcDbEntity
  8
0
100
AcDbBlockBegin
  2
*MODEL_SPACE
 70
     0
 10
0.0
 20
0.0
 30
0.0
  3
*MODEL_SPACE
  1

  0
ENDBLK
  5
21
330
1F
100
AcDbEntity
  8
0
100
AcDbBlockEnd
  0
BLOCK
  5
1C
330
1B
100
AcDbEntity
 67
     1
  8
0
100
AcDbBlockBegin
  2
*PAPER_SPACE
  1

  0
ENDBLK
  5
1D
330
1B
100
AcDbEntity
 67
     1
  8
0
100
AcDbBlockEnd
  0
ENDSEC
  0
SECTION
  2
ENTITIES
  0
LWPOLYLINE
  5
100
100
AcDbEntity
  8
Layer_1
 62
7
100
AcDbPolyline
 90
2
 70
0
 10
22.186500
 20
9.605878
 30
0.0
 10
22.186500
 20
13.306658
 30
0.0
  0
LWPOLYLINE
  5
101
100
AcDbEntity
  8
Layer_1
 62
7
100
AcDbPolyline
 90
2
 70
0
 10
24.088960
 20
9.605878
 30
0.0
 10
22.186500
 20
9.605878
 30
0.0
  0
LWPOLYLINE
  5
102
100
AcDbEntity
  8
Layer_1
 62
7
100
AcDbPolyline
 90
2
 70
0
 10
24.088960
 20
13.306658
 30
0.0
 10
24.088960
 20
9.605878
 30
0.0
  0
LWPOLYLINE
  5
103
100
AcDbEntity
  8
Layer_1
 62
7
100
AcDbPolyline
 90
2
 70
0
 10
22.186500
 20
13.306658
 30
0.0
 10
24.088960
 20
13.306658
 30
0.0
  0
LWPOLYLINE
  5
104
100
AcDbEntity
  8
Layer_1
 62
7
100
AcDbPolyline
 90
2
 70
0
 10
25.107500
 20
14.622378
 30
0.0
 10
25.107500
 20
18.323158
 30
0.0
  0
LWPOLYLINE
  5
105
100
AcDbEntity
  8
Layer_1
 62
7
100
AcDbPolyline
 90
2
 70
0
 10
27.009960
 20
14.622378
 30
0.0
 10
25.107500
 20
14.622378
 30
0.0
  0
LWPOLYLINE
  5
106
100
AcDbEntity
  8
Layer_1
 62
7
100
AcDbPolyline
 90
2
 70
0
 10
27.009960
 20
18.323158
 30
0.0
 10
27.009960
 20
14.622378
 30
0.0
  0
LWPOLYLINE
  5
107
100
AcDbEntity
  8
Layer_1
 62
7
100
AcDbPolyline
 90
2
 70
0
 10
25.107500
 20
18.323158
 30
0.0
 10
27.009960
 20
18.323158
 30
0.0
  0
LWPOLYLINE
  5
108
100
AcDbEntity
  8
Layer_1
 62
7
100
AcDbPolyline
 90
4
 70
1
 10
22.978980
 20
3.456538
 30
0.0
 10
21.223840
 20
2.730098
 30
0.0
 10
19.809060
 20
6.148938
 30
0.0
 10
21.564200
 20
6.875378
 30
0.0
  0
LWPOLYLINE
  5
109
100
AcDbEntity
  8
Layer_1
 62
7
100
AcDbPolyline
 90
4
 70
1
 10
5.569820
 20
6.926178
 30
0.0
 10
4.411580
 20
8.432398
 30
0.0
 10
7.347820
 20
10.685378
 30
0.0
 10
8.503520
 20
9.176618
 30
0.0
  0
LWPOLYLINE
  5
10a
100
AcDbEntity
  8
Layer_1
 62
7
100
AcDbPolyline
 90
4
 70
1
 10
13.258400
 20
26.923598
 30
0.0
 10
11.503260
 20
26.197158
 30
0.0
 10
10.088480
 20
29.615998
 30
0.0
 10
11.843620
 20
30.342438
 30
0.0
  0
LWPOLYLINE
  5
10b
100
AcDbEntity
  8
Layer_1
 62
7
100
AcDbPolyline
 90
4
 70
1
 10
23.834960
 20
14.622378
 30
0.0
 10
21.932500
 20
14.622378
 30
0.0
 10
21.932500
 20
18.323158
 30
0.0
 10
23.834960
 20
18.323158
 30
0.0
  0
LWPOLYLINE
  5
10c
100
AcDbEntity
  8
Layer_1
 62
7
100
AcDbPolyline
 90
2
 70
0
 10
20.659960
 20
18.323158
 30
0.0
 10
20.659960
 20
14.622378
 30
0.0
  0
LWPOLYLINE
  5
10d
100
AcDbEntity
  8
Layer_1
 62
7
100
AcDbPolyline
 90
2
 70
0
 10
18.757500
 20
18.323158
 30
0.0
 10
20.659960
 20
18.323158
 30
0.0
  0
LWPOLYLINE
  5
10e
100
AcDbEntity
  8
Layer_1
 62
7
100
AcDbPolyline
 90
2
 70
0
 10
18.757500
 20
14.622378
 30
0.0
 10
18.757500
 20
18.323158
 30
0.0
  0
LWPOLYLINE
  5
10f
100
AcDbEntity
  8
Layer_1
 62
7
100
AcDbPolyline
 90
2
 70
0
 10
20.659960
 20
14.622378
 30
0.0
 10
18.757500
 20
14.622378
 30
0.0
  0
LWPOLYLINE
  5
110
100
AcDbEntity
  8
Layer_1
 62
7
100
AcDbPolyline
 90
4
 70
1
 10
15.582500
 20
18.323158
 30
0.0
 10
17.484960
 20
18.323158
 30
0.0
 10
17.484960
 20
14.622378
 30
0.0
 10
15.582500
 20
14.622378
 30
0.0
  0
LWPOLYLINE
  5
111
100
AcDbEntity
  8
Layer_1
 62
7
100
AcDbPolyline
 90
2
 70
0
 10
12.407500
 20
14.622378
 30
0.0
 10
12.407500
 20
18.323158
 30
0.0
  0
LWPOLYLINE
  5
112
100
AcDbEntity
  8
Layer_1
 62
7
100
AcDbPolyline
 90
2
 70
0
 10
14.309960
 20
14.622378
 30
0.0
 10
12.407500
 20
14.622378
 30
0.0
  0
LWPOLYLINE
  5
113
100
AcDbEntity
  8
Layer_1
 62
7
100
AcDbPolyline
 90
2
 70
0
 10
14.309960
 20
18.323158
 30
0.0
 10
14.309960
 20
14.622378
 30
0.0
  0
LWPOLYLINE
  5
114
100
AcDbEntity
  8
Layer_1
 62
7
100
AcDbPolyline
 90
2
 70
0
 10
12.407500
 20
18.323158
 30
0.0
 10
14.309960
 20
18.323158
 30
0.0
  0
LWPOLYLINE
  5
115
100
AcDbEntity
  8
Layer_1
 62
7
100
AcDbPolyline
 90
4
 70
1
 10
11.134960
 20
14.622378
 30
0.0
 10
9.232500
 20
14.622378
 30
0.0
 10
9.232500
 20
18.323158
 30
0.0
 10
11.134960
 20
18.323158
 30
0.0
  0
LWPOLYLINE
  5
116
100
AcDbEntity
  8
Layer_1
 62
7
100
AcDbPolyline
 90
4
 70
1
 10
7.959960
 20
14.622378
 30
0.0
 10
6.057500
 20
14.622378
 30
0.0
 10
6.057500
 20
18.323158
 30
0.0
 10
7.959960
 20
18.323158
 30
0.0
  0
LWPOLYLINE
  5
117
100
AcDbEntity
  8
Layer_1
 62
7
100
AcDbPolyline
 90
2
 70
0
 10
11.533740
 20
26.136198
 30
0.0
 10
21.533720
 20
26.136198
 30
0.0
  0
LWPOLYLINE
  5
118
100
AcDbEntity
  8
Layer_1
 62
7
100
AcDbPolyline
 90
2
 70
0
 10
11.533740
 20
19.636338
 30
0.0
 10
21.533720
 20
19.636338
 30
0.0
  0
LWPOLYLINE
  5
119
100
AcDbEntity
  8
Layer_1
 62
7
100
AcDbPolyline
 90
2
 70
0
 10
11.533740
 20
26.136198
 30
0.0
 10
11.533740
 20
19.636338
 30
0.0
  0
LWPOLYLINE
  5
11a
100
AcDbEntity
  8
Layer_1
 62
7
100
AcDbPolyline
 90
2
 70
0
 10
21.533720
 20
19.636338
 30
0.0
 10
21.533720
 20
26.136198
 30
0.0
  0
LWPOLYLINE
  5
11b
100
AcDbEntity
  8
Layer_1
 62
7
100
AcDbPolyline
 90
2
 70
0
 10
11.782660
 20
12.882478
 30
0.0
 10
11.782660
 20
6.982058
 30
0.0
  0
LWPOLYLINE
  5
11c
100
AcDbEntity
  8
Layer_1
 62
7
100
AcDbPolyline
 90
2
 70
0
 10
21.284800
 20
12.882478
 30
0.0
 10
21.284800
 20
6.982058
 30
0.0
  0
LWPOLYLINE
  5
11d
100
AcDbEntity
  8
Layer_1
 62
7
100
AcDbPolyline
 90
2
 70
0
 10
11.782660
 20
12.882478
 30
0.0
 10
21.284800
 20
12.882478
 30
0.0
  0
LWPOLYLINE
  5
11e
100
AcDbEntity
  8
Layer_1
 62
7
100
AcDbPolyline
 90
2
 70
0
 10
11.782660
 20
6.982058
 30
0.0
 10
21.284800
 20
6.982058
 30
0.0
  0
LWPOLYLINE
  5
11f
100
AcDbEntity
  8
Layer_1
 62
7
100
AcDbPolyline
 90
2
 70
0
 10
14.175340
 20
27.169978
 30
0.0
 10
13.692740
 20
30.837738
 30
0.0
  0
LWPOLYLINE
  5
120
100
AcDbEntity
  8
Layer_1
 62
7
100
AcDbPolyline
 90
2
 70
0
 10
16.060020
 20
27.416358
 30
0.0
 10
14.175340
 20
27.169978
 30
0.0
  0
LWPOLYLINE
  5
121
100
AcDbEntity
  8
Layer_1
 62
7
100
AcDbPolyline
 90
2
 70
0
 10
15.577420
 20
31.086658
 30
0.0
 10
16.060020
 20
27.416358
 30
0.0
  0
LWPOLYLINE
  5
122
100
AcDbEntity
  8
Layer_1
 62
7
100
AcDbPolyline
 90
2
 70
0
 10
13.692740
 20
30.837738
 30
0.0
 10
15.577420
 20
31.086658
 30
0.0
  0
LWPOLYLINE
  5
123
100
AcDbEntity
  8
Layer_1
 62
7
100
AcDbPolyline
 90
4
 70
1
 10
9.174080
 20
8.506058
 30
0.0
 10
10.682840
 20
7.350358
 30
0.0
 10
8.429860
 20
4.414118
 30
0.0
 10
6.923640
 20
5.572358
 30
0.0
  0
LWPOLYLINE
  5
124
100
AcDbEntity
  8
Layer_1
 62
7
100
AcDbPolyline
 90
2
 70
0
 10
17.490040
 20
1.985878
 30
0.0
 10
17.007440
 20
5.656178
 30
0.0
  0
LWPOLYLINE
  5
125
100
AcDbEntity
  8
Layer_1
 62
7
100
AcDbPolyline
 90
2
 70
0
 10
19.374720
 20
2.234798
 30
0.0
 10
17.490040
 20
1.985878
 30
0.0
  0
LWPOLYLINE
  5
126
100
AcDbEntity
  8
Layer_1
 62
7
100
AcDbPolyline
 90
2
 70
0
 10
18.892120
 20
5.902558
 30
0.0
 10
19.374720
 20
2.234798
 30
0.0
  0
LWPOLYLINE
  5
127
100
AcDbEntity
  8
Layer_1
 62
7
100
AcDbPolyline
 90
2
 70
0
 10
17.007440
 20
5.656178
 30
0.0
 10
18.892120
 20
5.902558
 30
0.0
  0
LWPOLYLINE
  5
128
100
AcDbEntity
  8
Layer_1
 62
7
100
AcDbPolyline
 90
2
 70
0
 10
24.637600
 20
4.414118
 30
0.0
 10
22.384620
 20
7.350358
 30
0.0
  0
LWPOLYLINE
  5
129
100
AcDbEntity
  8
Layer_1
 62
7
100
AcDbPolyline
 90
2
 70
0
 10
26.143820
 20
5.572358
 30
0.0
 10
24.637600
 20
4.414118
 30
0.0
  0
LWPOLYLINE
  5
12a
100
AcDbEntity
  8
Layer_1
 62
7
100
AcDbPolyline
 90
2
 70
0
 10
23.893380
 20
8.506058
 30
0.0
 10
26.143820
 20
5.572358
 30
0.0
  0
LWPOLYLINE
  5
12b
100
AcDbEntity
  8
Layer_1
 62
7
100
AcDbPolyline
 90
2
 70
0
 10
22.384620
 20
7.350358
 30
0.0
 10
23.893380
 20
8.506058
 30
0.0
  0
LWPOLYLINE
  5
12c
100
AcDbEntity
  8
Layer_1
 62
7
100
AcDbPolyline
 90
4
 70
1
 10
28.655880
 20
8.432398
 30
0.0
 10
27.497640
 20
6.926178
 30
0.0
 10
24.563940
 20
9.176618
 30
0.0
 10
25.719640
 20
10.685378
 30
0.0
  0
LWPOLYLINE
  5
12d
100
AcDbEntity
  8
Layer_1
 62
7
100
AcDbPolyline
 90
2
 70
0
 10
13.258400
 20
6.148938
 30
0.0
 10
11.843620
 20
2.730098
 30
0.0
  0
LWPOLYLINE
  5
12e
100
AcDbEntity
  8
Layer_1
 62
7
100
AcDbPolyline
 90
2
 70
0
 10
11.503260
 20
6.875378
 30
0.0
 10
13.258400
 20
6.148938
 30
0.0
  0
LWPOLYLINE
  5
12f
100
AcDbEntity
  8
Layer_1
 62
7
100
AcDbPolyline
 90
2
 70
0
 10
10.088480
 20
3.456538
 30
0.0
 10
11.503260
 20
6.875378
 30
0.0
  0
LWPOLYLINE
  5
130
100
AcDbEntity
  8
Layer_1
 62
7
100
AcDbPolyline
 90
2
 70
0
 10
11.843620
 20
2.730098
 30
0.0
 10
10.088480
 20
3.456538
 30
0.0
  0
LWPOLYLINE
  5
131
100
AcDbEntity
  8
Layer_1
 62
7
100
AcDbPolyline
 90
4
 70
1
 10
14.175340
 20
5.902558
 30
0.0
 10
16.060020
 20
5.656178
 30
0.0
 10
15.577420
 20
1.985878
 30
0.0
 10
13.692740
 20
2.234798
 30
0.0
  0
LWPOLYLINE
  5
132
100
AcDbEntity
  8
Layer_1
 62
7
100
AcDbPolyline
 90
2
 70
0
 10
19.374720
 20
30.837738
 30
0.0
 10
18.892120
 20
27.169978
 30
0.0
  0
LWPOLYLINE
  5
133
100
AcDbEntity
  8
Layer_1
 62
7
100
AcDbPolyline
 90
2
 70
0
 10
17.490040
 20
31.086658
 30
0.0
 10
19.374720
 20
30.837738
 30
0.0
  0
LWPOLYLINE
  5
134
100
AcDbEntity
  8
Layer_1
 62
7
100
AcDbPolyline
 90
2
 70
0
 10
17.007440
 20
27.416358
 30
0.0
 10
17.490040
 20
31.086658
 30
0.0
  0
LWPOLYLINE
  5
135
100
AcDbEntity
  8
Layer_1
 62
7
100
AcDbPolyline
 90
2
 70
0
 10
18.892120
 20
27.169978
 30
0.0
 10
17.007440
 20
27.416358
 30
0.0
  0
LWPOLYLINE
  5
136
100
AcDbEntity
  8
Layer_1
 62
7
100
AcDbPolyline
 90
4
 70
1
 10
21.223840
 20
30.342438
 30
0.0
 10
22.978980
 20
29.615998
 30
0.0
 10
21.564200
 20
26.197158
 30
0.0
 10
19.809060
 20
26.923598
 30
0.0
  0
SPLINE
  5
137
100
AcDbEntity
  8
Layer_1
 62
7
100
AcDbSpline
 70
0
 71
3
 72
25
 73
21
 74
19
 40
0.000000
 40
0.000000
 40
0.000000
 40
0.000000
 40
5.761398
 40
11.440340
 40
17.201738
 40
22.963136
 40
28.642078
 40
34.403476
 40
40.164874
 40
45.843816
 40
51.605214
 40
57.366612
 40
63.045554
 40
68.806952
 40
74.568350
 40
80.247292
 40
86.008690
 40
91.770088
 40
97.449030
 40
103.210428
 40
103.210428
 40
103.210428
 40
103.210428
 10
33.045000
 20
16.534998
 30
0.0
 10
32.847739
 20
14.604737
 30
0.0
 10
32.456040
 20
10.771841
 30
0.0
 10
29.417099
 20
5.706609
 30
0.0
 10
24.967576
 20
1.940743
 30
0.0
 10
19.457678
 20
-0.056548
 30
0.0
 10
13.611056
 20
-0.056548
 30
0.0
 10
8.108876
 20
1.940743
 30
0.0
 10
3.628540
 20
5.706609
 30
0.0
 10
0.704084
 20
10.771841
 30
0.0
 10
-0.316990
 20
16.534998
 30
0.0
 10
0.704084
 20
22.298155
 30
0.0
 10
3.628540
 20
27.363386
 30
0.0
 10
8.108876
 20
31.129253
 30
0.0
 10
13.611056
 20
33.126543
 30
0.0
 10
19.457678
 20
33.126543
 30
0.0
 10
24.967576
 20
31.129253
 30
0.0
 10
29.417099
 20
27.363386
 30
0.0
 10
32.456040
 20
22.298155
 30
0.0
 10
32.847739
 20
18.465258
 30
0.0
 10
33.045000
 20
16.534998
 30
0.0
 11
33.045000
 21
16.534998
 31
0.0
 11
32.039972
 21
10.861936
 31
0.0
 11
29.200501
 21
5.943828
 31
0.0
 11
24.790000
 21
2.236918
 31
0.0
 11
19.374471
 21
0.270767
 31
0.0
 11
13.695528
 21
0.270767
 31
0.0
 11
8.280000
 21
2.236918
 31
0.0
 11
3.869498
 21
5.943828
 31
0.0
 11
1.030027
 21
10.861936
 31
0.0
 11
0.025000
 21
16.534998
 31
0.0
 11
1.030027
 21
22.208059
 31
0.0
 11
3.869498
 21
27.126168
 31
0.0
 11
8.280000
 21
30.833077
 31
0.0
 11
13.695528
 21
32.799229
 31
0.0
 11
19.374471
 21
32.799229
 31
0.0
 11
24.790000
 21
30.833077
 31
0.0
 11
29.200501
 21
27.126168
 31
0.0
 11
32.039972
 21
22.208059
 31
0.0
 11
33.045000
 21
16.534998
 31
0.0
  0
LWPOLYLINE
  5
138
100
AcDbEntity
  8
Layer_1
 62
7
100
AcDbPolyline
 90
1
 70
1
 10
33.045000
 20
16.534998
 30
0.0
  0
ENDSEC
  0
SECTION
  2
OBJECTS
  0
DICTIONARY
  5
C
330
0
100
AcDbDictionary
  3
ACAD_GROUP
350
D
  3
ACAD_MLINESTYLE
350
17
  0
DICTIONARY
  5
D
330
C
100
AcDbDictionary
  0
DICTIONARY
  5
1A
330
C
100
AcDbDictionary
  0
DICTIONARY
  5
17
330
C
100
AcDbDictionary
  3
STANDARD
350
18
  0
DICTIONARY
  5
19
330
C
100
AcDbDictionary
  0
ENDSEC
  0
EOF
